<?xml version="1.0" encoding="UTF-8"?>
<svg width="793.7007874015749" height="1122.5196850393702" xmlns="http://www.w3.org/2000/svg">
 <title>shopping cart</title>

 <metadata id="metadata7">image/svg+xmlshopping cartcartsupermarketshoppingshopping cartSergio Luiz Araujo Silva</metadata>
 <g>
  <title>Layer 1</title>
  <g id="layer1">
   <path fill="#000000" stroke-width="15.5" id="path3847" d="m665.71228,68.892021c-1.010376,0.014404 -2.047668,0.103554 -3.039917,0.281303c-0.018066,0.003601 -0.037842,-0.003601 -0.055847,0l-100.176575,17.10881c-6.371765,1.093155 -11.713318,5.462036 -14.070618,11.480911a4.554617,4.554617 0 0 0 0,0.05619l-46.485626,119.198341l-453.664421,11.313431c-5.217293,0.129654 -10.115814,2.48526 -13.50695,6.414886c-3.392954,3.929642 -5.024578,9.154114 -4.390671,14.351593l25.043709,207.16246c1.033737,8.691284 8.214039,15.583466 16.941322,16.264191l323.433945,25.720886l64.102203,50.425934a4.554617,4.554617 0 0 0 0.225128,0.16748c0.06842,0.048645 0.154846,0.06665 0.225098,0.113464c0.079254,0.052246 0.145874,0.117065 0.225128,0.16748c11.698853,8.732727 14.598328,20.629639 12.945099,27.239014c-0.941925,3.767578 -2.38089,6.535583 -5.797241,8.667847c-3.416321,2.132324 -9.317963,3.67572 -19.415741,3.095825a4.554617,4.554617 0 0 0 -0.113495,0c-0.324158,-0.010803 -0.689758,-0.007141 -1.013885,0c-0.054047,0 -0.115265,-0.001831 -0.169281,0l-385.735268,1.12561l-0.055836,0c-10.137421,-0.064819 -18.668411,8.437378 -18.628784,18.571106c0.039623,10.135681 8.604828,18.605408 18.740459,18.459534c0.019814,0 0.037811,0 0.055809,0l28.197121,-0.055847c-10.477783,6.677856 -17.503204,18.360474 -17.503204,31.629761c0,20.63501 16.901718,37.536621 37.538521,37.536621c20.635048,0 37.536766,-16.901611 37.536766,-37.536621c0,-13.341248 -7.043442,-25.139221 -17.614883,-31.799011l317.63858,-0.900513c-11.443115,6.452759 -19.246552,18.700867 -19.246552,32.699524c0,20.63501 16.901733,37.536621 37.536743,37.536621c20.63681,0 37.538544,-16.901611 37.538544,-37.536621c0,-17.922852 -12.730774,-33.030823 -29.601868,-36.693909c15.950806,-5.644165 28.204346,-17.279907 35.793427,-35.062256a4.554617,4.554617 0 0 0 0.280945,-0.675354c5.817047,-23.262634 -4.500488,-48.551208 -25.776642,-65.002747a4.554617,4.554617 0 0 0 -0.169342,-0.16925c-0.052185,-0.039612 -0.061218,-0.127869 -0.111603,-0.16748a4.554617,4.554617 0 0 0 -0.617737,-0.619507l-45.417603,-35.624146l141.653809,-362.831223l89.876953,-15.307892c0.018066,-0.003593 0.039734,0.003601 0.055847,0c9.442383,-1.517998 16.347107,-10.317871 15.53302,-19.866562c-0.813965,-9.566895 -9.150452,-17.070274 -18.740479,-16.939888l0.001892,0zm-177.504852,176.715294l-26.113434,66.972855l-34.04834,0l0,-65.452881l60.161774,-1.519974zm-73.162659,1.858551l0,65.114304l-62.86319,0l0,-63.538498l62.86319,-1.575806zm-75.864075,1.856735l0,63.257568l-62.86319,0l0,-61.681763l62.86319,-1.575806zm-75.864044,1.912613l0,61.344955l-62.86319,0l0,-59.76915l62.86319,-1.575806zm-75.864075,1.914352l0,59.430603l-62.86319,0l0,-57.854782l62.86319,-1.575821zm-75.864075,1.856781l0,57.573822l-46.092926,0l-6.809311,-56.223114l52.902237,-1.350708zm-44.517105,70.51712l44.517105,0l0,58.812897l-37.425049,0l-7.092056,-58.812897zm57.51799,0l62.86319,0l0,58.812897l-62.86319,0l0,-58.812897zm75.864075,0l62.86319,0l0,58.812897l-62.86319,0l0,-58.812897zm75.864044,0l62.86319,0l0,58.812897l-62.86319,0l0,-58.812897zm75.864075,0l62.86319,0l0,58.812897l-62.86319,0l0,-58.812897zm75.864075,0l29.039948,0l-22.961823,58.812897l-6.078125,0l0,-58.812897zm-352.306396,71.756134l35.849243,0l0,42.210144l-31.065994,-2.476288l-4.783249,-39.733856zm48.850128,0l62.86319,0l0,48.230652l-62.86319,-5.008392l0,-43.22226zm75.864075,0l62.86319,0l0,54.25293l-62.86319,-4.952545l0,-49.300385zm75.864044,0l62.86319,0l0,60.331055l-62.86319,-5.008392l0,-55.322662zm75.864075,0l62.86319,0l0,35.793457l-11.931122,30.559937c-1.548767,-0.751038 -3.238068,-1.212006 -4.952576,-1.350677l-45.979492,-3.657745l0,-61.344971zm75.864075,0l0.956299,0l-0.956299,2.645569l0,-2.645569zm-318.483192,238.51123c12.266121,0 22.061363,9.795227 22.061363,22.061401c0,12.266052 -9.795242,22.003662 -22.061363,22.003662c-12.266129,0 -22.061363,-9.73761 -22.061363,-22.003662c0,-12.266174 9.795235,-22.061401 22.061363,-22.061401zm355.852425,0c12.266144,0 22.061371,9.795227 22.061371,22.061401c0,12.266052 -9.795227,22.003662 -22.061371,22.003662c-12.266052,0 -22.06134,-9.73761 -22.06134,-22.003662c0,-12.266174 9.795288,-22.061401 22.06134,-22.061401zm-355.852425,10.466919c-6.663399,0 -11.986984,5.323608 -11.986984,11.987061c0,6.665222 5.323586,11.931091 11.986984,11.931091c6.663452,0 11.986984,-5.265869 11.986984,-11.931091c0,-6.663452 -5.323532,-11.987061 -11.986984,-11.987061zm355.852425,0c-6.663391,0 -11.986908,5.323608 -11.986908,11.987061c0,6.665222 5.323517,11.931091 11.986908,11.931091c6.663483,0 11.987,-5.265869 11.987,-11.931091c0,-6.663452 -5.323517,-11.987061 -11.987,-11.987061z"/>
  </g>
 </g>
</svg>